<svg xmlns="http://www.w3.org/2000/svg" viewBox="0 0 1200 120" preserveAspectRatio="xMinYMax slice">
	<path d="M0,120C8,95,27,95,40,98,34,71,61,71,66,82,53,50,104,29,110,67,101,27,162,1,162,61,174,52,182,64,179,70,184,59,189,53,201,60,194,33,240,20,236,59,256,17,296,52,271,75,296,57,306,81,295,92,308,90,308,94,308,102,310,66,350,66,354,92,366,68,390,75,392,104,394,88,404,82,412,88,413,68,430,68,431,72,412,45,465,12,471,56,474,25,514,23,508,57,517,50,527,55,525,66,532,47,565,47,561,77,572,70,578,77,575,86,586,78,592,92,589,97,598,75,622,86,620,108,622,100,629,86,644,96,629,68,661,45,674,69,665,35,726,18,724,64,731,44,746,47,751,57,761,31,801,45,783,70,795,63,807,69,803,80,820,53,837,70,840,77,858,71,863,79,863,90,872,55,928,63,920,105,930,77,947,88,948,99,949,86,958,87,962,89,939,56,997,12,999,66,997,31,1043,2,1046,51,1074,19,1086,48,1079,69,1109,29,1133,69,1120,84,1148,57,1178,83,1170,111,1179,100,1194,103,1200,120" style="opacity:0.5"/>
	<path d="M0,120L0,58C4,26,83,31,70,87,92,72,98,95,94,100,111,89,118,97,122,104,120,73,150,66,160,86,154,59,181,59,186,70,173,38,224,17,230,55,221,15,282,-11,282,49,294,40,302,52,299,58,304,47,309,41,321,48,314,21,360,8,356,47,376,5,416,40,391,63,416,45,426,69,415,80,428,78,428,82,428,90,430,54,470,54,474,80,486,56,510,63,512,92,514,76,524,70,532,76,533,56,550,56,551,60,532,33,585,0,591,44,594,13,634,11,628,45,637,38,647,43,645,54,652,35,685,35,681,65,692,58,698,65,695,74,706,66,712,80,709,85,718,63,742,74,740,96,742,88,749,74,764,84,749,56,781,33,794,57,785,23,846,6,844,52,851,32,866,35,871,45,881,19,921,33,903,58,915,51,927,57,923,68,940,41,957,58,960,65,978,59,983,67,983,78,992,43,1048,51,1040,93,1050,65,1067,76,1068,87,1069,74,1078,75,1082,77,1059,44,1117,0,1119,54,1117,19,1163,-10,1166,39,1194,7,1206,36,1200,57L1200,120Z"/>
</svg>
