<svg xmlns="http://www.w3.org/2000/svg" viewBox="0 0 1200 120" preserveAspectRatio="xMinYMax slice">
	<path d="M0,120L0,58C4,26,83,31,70,87,92,72,98,95,94,100,111,89,118,97,122,104,120,73,150,66,160,86,154,59,181,59,186,70,173,38,224,17,230,55,221,15,282,-11,282,49,294,40,302,52,299,58,304,47,309,41,321,48,314,21,360,8,356,47,376,5,416,40,391,63,416,45,426,69,415,80,428,78,428,82,428,90,430,54,470,54,474,80,486,56,510,63,512,92,514,76,524,70,532,76,533,56,550,56,551,60,532,33,585,0,591,44,594,13,634,11,628,45,637,38,647,43,645,54,652,35,685,35,681,65,692,58,698,65,695,74,706,66,712,80,709,85,718,63,742,74,740,96,742,88,749,74,764,84,749,56,781,33,794,57,785,23,846,6,844,52,851,32,866,35,871,45,881,19,921,33,903,58,915,51,927,57,923,68,940,41,957,58,960,65,978,59,983,67,983,78,992,43,1048,51,1040,93,1050,65,1067,76,1068,87,1069,74,1078,75,1082,77,1059,44,1117,0,1119,54,1117,19,1163,-10,1166,39,1194,7,1206,36,1200,57L1200,120Z"/>
</svg>
