<svg xmlns="http://www.w3.org/2000/svg" viewBox="0 0 1200 120" preserveAspectRatio="xMidYMax slice">
	<path d="M0,120L0,7C26,4,-11,113,21,113,54,113,-14,11,46,11,106,11,34,116,74,114,114,113,55,13,106,10,129,11,91,66,120,64,149,62,104,11,134,11,164,11,121,112,158,113,195,114,128,17,170,17,193,17,176,33,186,35,197,36,183,14,204,14,225,14,177,119,214,117,250,116,203,14,228,15,235,15,231,26,244,26,257,26,250,15,257,15,264,14,235,87,264,85,293,82,252,19,276,18,301,17,263,113,294,114,325,115,274,9,313,10,352,11,304,73,327,79,350,85,318,9,342,9,354,9,348,21,358,28,369,34,362,8,369,8,390,8,355,100,379,104,404,107,367,20,393,21,399,22,394,32,404,33,414,33,408,12,415,12,429,13,389,118,421,114,452,111,410,17,437,17,465,13,422,113,455,113,489,113,420,11,480,11,540,11,468,116,508,114,549,113,489,13,540,10,564,11,525,66,554,64,583,62,538,11,569,11,599,11,556,112,593,113,630,114,563,17,605,17,628,17,611,33,621,35,631,36,617,14,639,14,660,14,611,119,648,117,685,116,637,14,663,15,670,15,665,26,678,26,691,26,684,15,691,15,698,14,670,87,699,85,727,82,686,19,711,18,735,17,697,113,729,114,760,115,709,9,748,10,787,11,738,73,761,79,784,85,753,9,777,9,789,9,783,21,793,28,803,34,796,8,804,8,825,8,789,100,814,104,839,107,801,20,828,21,834,22,829,32,839,33,849,33,842,12,849,12,863,13,824,118,855,114,887,111,839,16,866,16,890,18,856,65,885,63,914,61,869,11,899,10,929,10,887,112,923,112,960,113,894,16,935,16,958,16,941,33,951,34,962,35,948,13,969,13,991,13,942,118,979,117,1016,115,968,13,993,14,1000,15,996,26,1009,26,1022,26,1015,15,1022,14,1029,13,1001,86,1029,84,1058,81,1017,18,1041,17,1066,16,1028,112,1059,113,1090,114,1039,8,1078,9,1117,10,1069,72,1092,78,1115,84,1083,8,1107,8,1119,8,1113,21,1124,27,1134,33,1127,7,1134,7,1155,7,1120,100,1145,103,1169,106,1132,19,1158,20,1165,21,1159,31,1169,32,1179,33,1173,11,1180,12,1194,12,1154,117,1186,114,1218,110,1170,15,1200,16L1200,120Z"/>
</svg>
