<svg xmlns="http://www.w3.org/2000/svg" viewBox="0 0 1200 12" preserveAspectRatio="xMidYMax slice">
	<path d="M0,12L0,11C9,10,16,-5,23,2,17,0,12,11,24,11,33,10,40,-5,47,2,41,0,36,11,48,11,57,10,64,-5,71,2,65,0,60,11,72,11,81,10,88,-5,95,2,89,0,84,11,96,11,105,10,112,-5,119,2,113,0,108,11,120,11,129,10,136,-5,143,2,137,0,132,11,144,11,153,10,160,-5,167,2,161,0,156,11,168,11,177,10,184,-5,191,2,185,0,180,11,192,11,201,10,208,-5,215,2,209,0,204,11,216,11,225,10,232,-5,239,2,233,0,228,11,240,11,249,10,256,-5,263,2,257,0,252,11,264,11,273,10,280,-5,287,2,281,0,276,11,288,11,297,10,304,-5,311,2,305,0,300,11,312,11,321,10,328,-5,335,2,329,0,324,11,336,11,345,10,352,-5,359,2,353,0,348,11,360,11,369,10,376,-5,383,2,377,0,372,11,384,11,393,10,400,-5,407,2,401,0,396,11,408,11,417,10,424,-5,431,2,425,0,420,11,432,11,441,10,448,-5,455,2,449,0,444,11,456,11,465,10,472,-5,479,2,473,0,468,11,480,11,489,10,496,-5,503,2,497,0,492,11,504,11,513,10,520,-5,527,2,521,0,516,11,528,11,537,10,544,-5,551,2,545,0,540,11,552,11,561,10,568,-5,575,2,569,0,564,11,576,11,585,10,592,-5,599,2,593,0,588,11,600,11,609,10,616,-5,623,2,617,0,612,11,624,11,633,10,640,-5,647,2,641,0,636,11,648,11,657,10,664,-5,671,2,665,0,660,11,672,11,681,10,688,-5,695,2,689,0,684,11,696,11,705,10,712,-5,719,2,713,0,708,11,720,11,729,10,736,-5,743,2,737,0,732,11,744,11,753,10,760,-5,767,2,761,0,756,11,768,11,777,10,784,-5,791,2,785,0,780,11,792,11,801,10,808,-5,815,2,809,0,804,11,816,11,825,10,832,-5,839,2,833,0,828,11,840,11,849,10,856,-5,863,2,857,0,852,11,864,11,873,10,880,-5,887,2,881,0,876,11,888,11,897,10,904,-5,911,2,905,0,900,11,912,11,921,10,928,-5,935,2,929,0,924,11,936,11,945,10,952,-5,959,2,953,0,948,11,960,11,969,10,976,-5,983,2,977,0,972,11,984,11,993,10,1000,-5,1007,2,1001,0,996,11,1008,11,1017,10,1024,-5,1031,2,1025,0,1020,11,1032,11,1041,10,1048,-5,1055,2,1049,0,1044,11,1056,11,1065,10,1072,-5,1079,2,1073,0,1068,11,1080,11,1089,10,1096,-5,1103,2,1097,0,1092,11,1104,11,1113,10,1120,-5,1127,2,1121,0,1116,11,1128,11,1137,10,1144,-5,1151,2,1145,0,1140,11,1152,11,1161,10,1168,-5,1175,2,1169,0,1164,11,1176,11,1185,10,1192,-5,1199,2,1193,0,1188,11,1200,11,1209,10,1216,-5,1223,2L1200,12Z"/>
</svg>
