<svg xmlns="http://www.w3.org/2000/svg" viewBox="0 0 1200 12" preserveAspectRatio="xMidYMax slice">
	<path d="M0,12L0,11C21,10,28,-5,35,2,29,0,24,11,36,11,45,10,52,-5,59,2,53,0,48,11,60,11,69,10,76,-5,83,2,77,0,72,11,84,11,93,10,100,-5,107,2,101,0,96,11,108,11,117,10,124,-5,131,2,125,0,120,11,132,11,141,10,148,-5,155,2,149,0,144,11,156,11,165,10,172,-5,179,2,173,0,168,11,180,11,189,10,196,-5,203,2,197,0,192,11,204,11,213,10,220,-5,227,2,221,0,216,11,228,11,237,10,244,-5,251,2,245,0,240,11,252,11,261,10,268,-5,275,2,269,0,264,11,276,11,285,10,292,-5,299,2,293,0,288,11,300,11,309,10,316,-5,323,2,317,0,312,11,324,11,333,10,340,-5,347,2,341,0,336,11,348,11,357,10,364,-5,371,2,365,0,360,11,372,11,381,10,388,-5,395,2,389,0,384,11,396,11,405,10,412,-5,419,2,413,0,408,11,420,11,429,10,436,-5,443,2,437,0,432,11,444,11,453,10,460,-5,467,2,461,0,456,11,468,11,477,10,484,-5,491,2,485,0,480,11,492,11,501,10,508,-5,515,2,509,0,504,11,516,11,525,10,532,-5,539,2,533,0,528,11,540,11,549,10,556,-5,563,2,557,0,552,11,564,11,573,10,580,-5,587,2,581,0,576,11,588,11,597,10,604,-5,611,2,605,0,600,11,612,11,621,10,628,-5,635,2,629,0,624,11,636,11,645,10,652,-5,659,2,653,0,648,11,660,11,669,10,676,-5,683,2,677,0,672,11,684,11,693,10,700,-5,707,2,701,0,696,11,708,11,717,10,724,-5,731,2,725,0,720,11,732,11,741,10,748,-5,755,2,749,0,744,11,756,11,765,10,772,-5,779,2,773,0,768,11,780,11,789,10,796,-5,803,2,797,0,792,11,804,11,813,10,820,-5,827,2,821,0,816,11,828,11,837,10,844,-5,851,2,845,0,840,11,852,11,861,10,868,-5,875,2,869,0,864,11,876,11,885,10,892,-5,899,2,893,0,888,11,900,11,909,10,916,-5,923,2,917,0,912,11,924,11,933,10,940,-5,947,2,941,0,936,11,948,11,957,10,964,-5,971,2,965,0,960,11,972,11,981,10,988,-5,995,2,989,0,984,11,996,11,1005,10,1012,-5,1019,2,1013,0,1008,11,1020,11,1029,10,1036,-5,1043,2,1037,0,1032,11,1044,11,1053,10,1060,-5,1067,2,1061,0,1056,11,1068,11,1077,10,1084,-5,1091,2,1085,0,1080,11,1092,11,1101,10,1108,-5,1115,2,1109,0,1104,11,1116,11,1125,10,1132,-5,1139,2,1133,0,1128,11,1140,11,1149,10,1156,-5,1163,2,1157,0,1152,11,1164,11,1173,10,1180,-5,1187,2,1181,0,1176,11,1188,11,1197,10,1204,-5,1211,2,1205,0,1200,11,1212,11,1221,10,1228,-5,1235,2L1200,12Z" style="opacity:0.5"/>
	<path d="M0,12L0,11C9,10,16,-5,23,2,17,0,12,11,24,11,33,10,40,-5,47,2,41,0,36,11,48,11,57,10,64,-5,71,2,65,0,60,11,72,11,81,10,88,-5,95,2,89,0,84,11,96,11,105,10,112,-5,119,2,113,0,108,11,120,11,129,10,136,-5,143,2,137,0,132,11,144,11,153,10,160,-5,167,2,161,0,156,11,168,11,177,10,184,-5,191,2,185,0,180,11,192,11,201,10,208,-5,215,2,209,0,204,11,216,11,225,10,232,-5,239,2,233,0,228,11,240,11,249,10,256,-5,263,2,257,0,252,11,264,11,273,10,280,-5,287,2,281,0,276,11,288,11,297,10,304,-5,311,2,305,0,300,11,312,11,321,10,328,-5,335,2,329,0,324,11,336,11,345,10,352,-5,359,2,353,0,348,11,360,11,369,10,376,-5,383,2,377,0,372,11,384,11,393,10,400,-5,407,2,401,0,396,11,408,11,417,10,424,-5,431,2,425,0,420,11,432,11,441,10,448,-5,455,2,449,0,444,11,456,11,465,10,472,-5,479,2,473,0,468,11,480,11,489,10,496,-5,503,2,497,0,492,11,504,11,513,10,520,-5,527,2,521,0,516,11,528,11,537,10,544,-5,551,2,545,0,540,11,552,11,561,10,568,-5,575,2,569,0,564,11,576,11,585,10,592,-5,599,2,593,0,588,11,600,11,609,10,616,-5,623,2,617,0,612,11,624,11,633,10,640,-5,647,2,641,0,636,11,648,11,657,10,664,-5,671,2,665,0,660,11,672,11,681,10,688,-5,695,2,689,0,684,11,696,11,705,10,712,-5,719,2,713,0,708,11,720,11,729,10,736,-5,743,2,737,0,732,11,744,11,753,10,760,-5,767,2,761,0,756,11,768,11,777,10,784,-5,791,2,785,0,780,11,792,11,801,10,808,-5,815,2,809,0,804,11,816,11,825,10,832,-5,839,2,833,0,828,11,840,11,849,10,856,-5,863,2,857,0,852,11,864,11,873,10,880,-5,887,2,881,0,876,11,888,11,897,10,904,-5,911,2,905,0,900,11,912,11,921,10,928,-5,935,2,929,0,924,11,936,11,945,10,952,-5,959,2,953,0,948,11,960,11,969,10,976,-5,983,2,977,0,972,11,984,11,993,10,1000,-5,1007,2,1001,0,996,11,1008,11,1017,10,1024,-5,1031,2,1025,0,1020,11,1032,11,1041,10,1048,-5,1055,2,1049,0,1044,11,1056,11,1065,10,1072,-5,1079,2,1073,0,1068,11,1080,11,1089,10,1096,-5,1103,2,1097,0,1092,11,1104,11,1113,10,1120,-5,1127,2,1121,0,1116,11,1128,11,1137,10,1144,-5,1151,2,1145,0,1140,11,1152,11,1161,10,1168,-5,1175,2,1169,0,1164,11,1176,11,1185,10,1192,-5,1199,2,1193,0,1188,11,1200,11,1209,10,1216,-5,1223,2L1200,12Z"/>
</svg>
