<svg xmlns="http://www.w3.org/2000/svg" viewBox="0 0 1200 12" preserveAspectRatio="xMidYMax slice">
	<path d="M0,12L12,0,24,12,36,0,48,12,60,0,72,12,84,0,96,12,108,0,120,12,132,0,144,12,156,0,168,12,180,0,192,12,204,0,216,12,228,0,240,12,252,0,264,12,276,0,288,12,300,0,312,12,324,0,336,12,348,0,360,12,372,0,384,12,396,0,408,12,420,0,432,12,444,0,456,12,468,0,480,12,492,0,504,12,516,0,528,12,540,0,552,12,564,0,576,12,588,0,600,12,612,0,624,12,636,0,648,12,660,0,672,12,684,0,696,12,708,0,720,12,732,0,744,12,756,0,768,12,780,0,792,12,804,0,816,12,828,0,840,12,852,0,864,12,876,0,888,12,900,0,912,12,924,0,936,12,948,0,960,12,972,0,984,12,996,0,1008,12,1020,0,1032,12,1044,0,1056,12,1068,0,1080,12,1092,0,1104,12,1116,0,1128,12,1140,0,1152,12,1164,0,1176,12,1188,0,1200,12Z"/>
</svg>
