<svg xmlns="http://www.w3.org/2000/svg" viewBox="0 0 1200 12" preserveAspectRatio="xMidYMax slice">
	<path d="M0,12L0,6C0,-14,0,26,12,6,24,-14,24,26,36,6,48,-14,48,26,60,6,72,-14,72,26,84,6,96,-14,96,26,108,6,120,-14,120,26,132,6,144,-14,144,26,156,6,168,-14,168,26,180,6,192,-14,192,26,204,6,216,-14,216,26,228,6,240,-14,240,26,252,6,264,-14,264,26,276,6,288,-14,288,26,300,6,312,-14,312,26,324,6,336,-14,336,26,348,6,360,-14,360,26,372,6,384,-14,384,26,396,6,408,-14,408,26,420,6,432,-14,432,26,444,6,456,-14,456,26,468,6,480,-14,480,26,492,6,504,-14,504,26,516,6,528,-14,528,26,540,6,552,-14,552,26,564,6,576,-14,576,26,588,6,600,-14,600,26,612,6,624,-14,624,26,636,6,648,-14,648,26,660,6,672,-14,672,26,684,6,696,-14,696,26,708,6,720,-14,720,26,732,6,744,-14,744,26,756,6,768,-14,768,26,780,6,792,-14,792,26,804,6,816,-14,816,26,828,6,840,-14,840,26,852,6,864,-14,864,26,876,6,888,-14,888,26,900,6,912,-14,912,26,924,6,936,-14,936,26,948,6,960,-14,960,26,972,6,984,-14,984,26,996,6,1008,-14,1008,26,1020,6,1032,-14,1032,26,1044,6,1056,-14,1056,26,1068,6,1080,-14,1080,26,1092,6,1104,-14,1104,26,1116,6,1128,-14,1128,26,1140,6,1152,-14,1152,26,1164,6,1176,-14,1176,26,1188,6,1200,-14,1200,26,1212,6L1200,12Z" style="opacity:0.5"/>
	<path d="M0,12L0,6C12,-14,12,26,24,6,36,-14,36,26,48,6,60,-14,60,26,72,6,84,-14,84,26,96,6,108,-14,108,26,120,6,132,-14,132,26,144,6,156,-14,156,26,168,6,180,-14,180,26,192,6,204,-14,204,26,216,6,228,-14,228,26,240,6,252,-14,252,26,264,6,276,-14,276,26,288,6,300,-14,300,26,312,6,324,-14,324,26,336,6,348,-14,348,26,360,6,372,-14,372,26,384,6,396,-14,396,26,408,6,420,-14,420,26,432,6,444,-14,444,26,456,6,468,-14,468,26,480,6,492,-14,492,26,504,6,516,-14,516,26,528,6,540,-14,540,26,552,6,564,-14,564,26,576,6,588,-14,588,26,600,6,612,-14,612,26,624,6,636,-14,636,26,648,6,660,-14,660,26,672,6,684,-14,684,26,696,6,708,-14,708,26,720,6,732,-14,732,26,744,6,756,-14,756,26,768,6,780,-14,780,26,792,6,804,-14,804,26,816,6,828,-14,828,26,840,6,852,-14,852,26,864,6,876,-14,876,26,888,6,900,-14,900,26,912,6,924,-14,924,26,936,6,948,-14,948,26,960,6,972,-14,972,26,984,6,996,-14,996,26,1008,6,1020,-14,1020,26,1032,6,1044,-14,1044,26,1056,6,1068,-14,1068,26,1080,6,1092,-14,1092,26,1104,6,1116,-14,1116,26,1128,6,1140,-14,1140,26,1152,6,1164,-14,1164,26,1176,6,1188,-14,1188,26,1200,6L1200,12Z"/>
</svg>
