<svg xmlns="http://www.w3.org/2000/svg" viewBox="0 0 1200 12" preserveAspectRatio="xMidYMax slice">
	<path d="M0,12L0,6C0,-14,24,26,24,6,24,-14,48,26,48,6,48,-14,72,26,72,6,72,-14,96,26,96,6,96,-14,120,26,120,6,120,-14,144,26,144,6,144,-14,168,26,168,6,168,-14,192,26,192,6,192,-14,216,26,216,6,216,-14,240,26,240,6,240,-14,264,26,264,6,264,-14,288,26,288,6,288,-14,312,26,312,6,312,-14,336,26,336,6,336,-14,360,26,360,6,360,-14,384,26,384,6,384,-14,408,26,408,6,408,-14,432,26,432,6,432,-14,456,26,456,6,456,-14,480,26,480,6,480,-14,504,26,504,6,504,-14,528,26,528,6,528,-14,552,26,552,6,552,-14,576,26,576,6,576,-14,600,26,600,6,600,-14,624,26,624,6,624,-14,648,26,648,6,648,-14,672,26,672,6,672,-14,696,26,696,6,696,-14,720,26,720,6,720,-14,744,26,744,6,744,-14,768,26,768,6,768,-14,792,26,792,6,792,-14,816,26,816,6,816,-14,840,26,840,6,840,-14,864,26,864,6,864,-14,888,26,888,6,888,-14,912,26,912,6,912,-14,936,26,936,6,936,-14,960,26,960,6,960,-14,984,26,984,6,984,-14,1008,26,1008,6,1008,-14,1032,26,1032,6,1032,-14,1056,26,1056,6,1056,-14,1080,26,1080,6,1080,-14,1104,26,1104,6,1104,-14,1128,26,1128,6,1128,-14,1152,26,1152,6,1152,-14,1176,26,1176,6,1176,-14,1200,26,1200,6L1200,12Z"/>
</svg>
